<?xml version="1.0" encoding="utf-8"?>
<!-- Svg Vector Icons : http://www.onlinewebfonts.com/icon -->
<!DOCTYPE svg PUBLIC "-//W3C//DTD SVG 1.1//EN" "http://www.w3.org/Graphics/SVG/1.1/DTD/svg11.dtd">
<svg version="1.1" xmlns="http://www.w3.org/2000/svg" xmlns:xlink="http://www.w3.org/1999/xlink" x="0px" y="0px" viewBox="0 0 1000 1000" enable-background="new 0 0 1000 1000" xml:space="preserve">
<metadata> Svg Vector Icons : http://www.onlinewebfonts.com/icon </metadata>
<g><g transform="translate(0.000000,511.000000) scale(0.100000,-0.100000)"><path d="M4483.1,4994.3c-769.6-79-1622.8-395-2245.7-828.3C1510.6,3660.4,980.2,3048.8,601.1,2276.9C251.2,1563.7,100,915.9,100,110.1c0-805.8,151.2-1453.5,501.1-2166.8C1303-3483,2632.4-4471.6,4201-4733.4c1557.3-259.6,3159.8,261.8,4286.1,1392.6C9405.7-2417.7,9900-1210.2,9900,110.1c0,1485.1-622.9,2814.5-1771.8,3780.5C7151,4714.5,5787.7,5127.5,4483.1,4994.3z M3320.8,2956.3c198.6-83.5,399.5-356.6,474-638.7c42.9-164.8,42.9-474,0-656.8c-121.9-516.9-532.7-801.2-902.8-627.5c-302.4,139.9-494.3,516.9-492,961.5c2.2,433.4,198.6,817,487.5,947.9C3002.5,2996.9,3210.2,3001.4,3320.8,2956.3z M7117.1,2942.7c196.4-88,372.4-334,446.9-620.7c42.9-169.3,42.9-505.6,0-672.6c-130.9-503.3-532.7-785.4-891.5-622.9c-302.4,135.4-498.8,505.6-498.8,941.2c0,119.6,11.3,270.8,24.8,331.8c70,286.6,259.6,555.2,458.2,643.3c58.7,27.1,144.5,45.1,230.2,45.1S7058.4,2969.8,7117.1,2942.7z M5546.2-47.9c510.1-67.7,918.6-191.8,1370-419.8c462.7-232.5,893.8-564.3,1169.1-896c139.9-171.5,167-266.3,108.3-406.3c-60.9-153.5-207.6-230.2-381.4-198.6c-60.9,11.3-135.4,72.2-343.1,279.9C6970.4-1189.9,6401.6-887.5,5690.6-743c-313.7,63.2-1112.7,56.4-1424.2-11.3c-699.7-151.3-1236.8-442.4-1733.4-934.4c-284.4-282.1-334-309.2-498.8-279.9c-103.8,20.3-230.2,146.7-250.5,252.8c-24.8,137.7,22.6,234.7,218.9,446.9C2623.4-605.3,3465.2-185.5,4438-47.9C4724.6-9.5,5252.8-7.2,5546.2-47.9z"/></g></g>
</svg>